#N canvas 952 0 958 966 12;
#X obj 61 140 mtof;
#X floatatom 124 156 5 0 0 1 Slew - - 0;
#X floatatom 61 165 5 0 0 0 - - - 0;
#X obj 61 192 pack;
#X msg 61 230 \$1 \$2;
#X obj 61 259 line~;
#X obj 61 289 phasor~;
#X obj 62 320 expr~ $v1 - 1;
#X floatatom 73 346 5 0 0 0 - - - 0;
#X floatatom 120 359 5 0 0 0 - - - 0;
#X obj 61 409 hip~ 5;
#X obj 494 737 dac~;
#X obj 166 277 *~ 1.003;
#X obj 165 300 phasor~;
#X obj 264 288 loadbang;
#X msg 264 327 520;
#X msg 304 340 3;
#X obj 177 368 bng 15 250 50 0 empty empty empty 17 7 0 10 #fcfcfc
#000000 #000000;
#X obj 177 391 f;
#X obj 177 445 vline~;
#X obj 290 373 hsl 128 15 0 1 0 0 empty empty empty -2 -8 0 10 #fcfcfc
#000000 #000000 0 1;
#X obj 61 377 bob~;
#X obj 61 79 +;
#X floatatom 79 55 5 36 127 1 Note - - 0;
#X obj 61 5 r LFO;
#X floatatom 61 108 5 0 0 0 - - - 0;
#X obj 688 253 metro 3;
#X obj 688 307 snapshot~;
#X floatatom 688 339 5 0 0 0 - - - 0;
#X obj 688 396 s LFO;
#X obj 513 24 tgl 15 0 empty empty empty 17 7 0 10 #fcfcfc #000000
#000000 0 1;
#X obj 513 44 s toggle;
#X obj 688 220 r toggle;
#X obj 585 201 s note;
#X obj 79 33 r note;
#X floatatom 585 179 5 0 0 0 - - - 0;
#X obj 585 73 r toggle;
#X obj 62 558 throw~ out;
#X obj 502 483 catch~ out;
#X obj 680 501 hip~ 600;
#X obj 680 525 delwrite~ delBuff 900;
#X obj 680 549 delread~ delBuff 900;
#X obj 680 573 *~ 0.9;
#X obj 680 597 lop~ 4000;
#X obj 680 621 throw~ out;
#X obj 501 551 *~;
#X obj 358 536 hsl 128 15 0 1 0 0 empty empty empty -2 -8 0 10 #fcfcfc
#000000 #000000 0 1;
#X obj 919 24 tgl 15 0 empty empty empty 17 7 0 10 #fcfcfc #000000
#000000 0 1;
#X msg 919 48 \; pd dsp \$1;
#X floatatom 332 396 5 0 0 0 - - - 0;
#X obj 62 463 *~;
#X msg 177 417 \$1 500 \, 0.7 1000 1000 \, 0 1000 3000;
#X obj 585 102 metro 4000;
#X obj 585 127 random 12;
#X obj 585 154 + 59;
#X obj 690 363 * 0.0075;
#X obj 739 281 osc~ 4;
#X obj 483 663 freeverb~;
#X obj 317 784 sel 0;
#X msg 278 745 0;
#X msg 323 745 1;
#X obj 316 818 bng 15 250 50 0 empty empty empty 17 7 0 10 #fcfcfc
#000000 #000000;
#X obj 363 818 bng 15 250 50 0 empty empty empty 17 7 0 10 #fcfcfc
#000000 #000000;
#X connect 0 0 2 0;
#X connect 1 0 3 1;
#X connect 2 0 3 0;
#X connect 3 0 4 0;
#X connect 4 0 5 0;
#X connect 5 0 6 0;
#X connect 5 0 12 0;
#X connect 6 0 7 0;
#X connect 7 0 21 0;
#X connect 8 0 21 1;
#X connect 9 0 21 2;
#X connect 10 0 50 0;
#X connect 12 0 13 0;
#X connect 13 0 7 0;
#X connect 14 0 15 0;
#X connect 14 0 16 0;
#X connect 15 0 8 0;
#X connect 16 0 9 0;
#X connect 17 0 18 0;
#X connect 18 0 51 0;
#X connect 19 0 50 1;
#X connect 20 0 49 0;
#X connect 20 0 18 1;
#X connect 21 0 10 0;
#X connect 22 0 25 0;
#X connect 23 0 22 1;
#X connect 23 0 17 0;
#X connect 24 0 22 0;
#X connect 25 0 0 0;
#X connect 26 0 27 0;
#X connect 27 0 28 0;
#X connect 28 0 55 0;
#X connect 30 0 31 0;
#X connect 32 0 26 0;
#X connect 34 0 23 0;
#X connect 35 0 33 0;
#X connect 36 0 52 0;
#X connect 38 0 39 0;
#X connect 38 0 45 0;
#X connect 39 0 40 0;
#X connect 41 0 42 0;
#X connect 42 0 43 0;
#X connect 43 0 44 0;
#X connect 45 0 57 0;
#X connect 45 0 57 1;
#X connect 46 0 45 1;
#X connect 47 0 48 0;
#X connect 50 0 37 0;
#X connect 51 0 19 0;
#X connect 52 0 53 0;
#X connect 53 0 54 0;
#X connect 54 0 35 0;
#X connect 55 0 29 0;
#X connect 56 0 27 0;
#X connect 57 0 11 0;
#X connect 57 1 11 1;
#X connect 58 0 61 0;
#X connect 58 1 62 0;
#X connect 59 0 58 0;
#X connect 60 0 58 0;
