#N canvas -4 38 1512 831 12;
#X obj 61 140 mtof;
#X floatatom 124 156 5 0 0 1 Slew - - 0;
#X floatatom 61 165 5 0 0 0 - - - 0;
#X obj 61 192 pack;
#X msg 61 230 \$1 \$2;
#X obj 61 259 line~;
#X obj 61 289 phasor~;
#X obj 62 320 expr~ $v1 - 1;
#X floatatom 73 346 5 0 0 0 - - - 0;
#X floatatom 120 359 5 0 0 0 - - - 0;
#X obj 61 409 hip~ 5;
#X obj 993 827 dac~;
#X obj 166 277 *~ 1.003;
#X obj 165 300 phasor~;
#X obj 264 288 loadbang;
#X msg 264 327 520;
#X msg 304 340 3;
#X obj 177 368 bng 15 250 50 0 empty empty empty 17 7 0 10 #fcfcfc #000000 #000000;
#X obj 177 391 f;
#X obj 177 445 vline~;
#X obj 290 373 hsl 128 15 0 1 0 0 empty empty empty -2 -8 0 10 #fcfcfc #000000 #000000 0 1;
#X obj 61 377 bob~;
#X obj 61 79 +;
#X floatatom 107 74 5 36 127 1 Note - - 0;
#X obj 61 5 r LFO;
#X floatatom 61 108 5 0 0 0 - - - 0;
#X obj 1364 301 metro 3;
#X obj 1364 355 snapshot~;
#X floatatom 1364 387 5 0 0 0 - - - 0;
#X obj 1366 444 s LFO;
#X obj 1364 273 tgl 15 0 empty empty empty 17 7 0 10 #fcfcfc #000000 #000000 0 1;
#X floatatom 1205 319 5 0 0 0 - - - 0;
#X obj 62 558 throw~ out;
#X obj 1001 573 catch~ out;
#X obj 1179 591 hip~ 600;
#X obj 1179 615 delwrite~ delBuff 900;
#X obj 1179 639 delread~ delBuff 900;
#X obj 1179 663 *~ 0.9;
#X obj 1179 687 lop~ 4000;
#X obj 1179 711 throw~ out;
#X obj 1000 641 *~;
#X obj 857 626 hsl 128 15 0 1 0 0 empty empty empty -2 -8 0 10 #fcfcfc #000000 #000000 0 1;
#X obj 1291 31 tgl 15 0 empty empty empty 17 7 0 10 #fcfcfc #000000 #000000 0 1;
#X msg 1291 55 \; pd dsp \$1;
#X floatatom 332 396 5 0 0 0 - - - 0;
#X obj 62 463 *~;
#X msg 177 417 \$1 500 \, 0.7 1000 1000 \, 0 1000 3000;
#X obj 1415 329 osc~ 4;
#X obj 982 753 freeverb~;
#X obj 1205 167 oscparse;
#X obj 1205 143 netreceive -u -b;
#X msg 1205 108 listen 0;
#X msg 1288 107 listen 8001;
#X obj 1205 197 list trim;
#X obj 1205 232 route newNote;
#X obj 1171 46 bng 19 250 50 0 empty empty empty 0 -10 0 12 #fcfcfc #000000 #000000;
#X obj 1366 411 * 1;
#X msg 1461 392 0.0075;
#X msg 1433 371 1;
#X obj 1419 217 route mode;
#X obj 1429 250 sel 0;
#X obj 1141 216 print;
#X msg 853 578 0.8;
#X msg 429 338 0.8;
#X obj 1092 65 s bang;
#X obj 427 308 r bang;
#X obj 853 551 r bang;
#X obj 566 144 mtof;
#X floatatom 629 160 5 0 0 1 Slew - - 0;
#X floatatom 566 169 5 0 0 0 - - - 0;
#X obj 566 196 pack;
#X msg 566 234 \$1 \$2;
#X obj 566 263 line~;
#X obj 566 293 phasor~;
#X obj 567 324 expr~ $v1 - 1;
#X floatatom 578 350 5 0 0 0 - - - 0;
#X floatatom 625 363 5 0 0 0 - - - 0;
#X obj 566 413 hip~ 5;
#X obj 671 281 *~ 1.003;
#X obj 670 304 phasor~;
#X obj 769 292 loadbang;
#X msg 769 331 520;
#X msg 809 344 3;
#X obj 682 372 bng 15 250 50 0 empty empty empty 17 7 0 10 #fcfcfc #000000 #000000;
#X obj 682 395 f;
#X obj 682 449 vline~;
#X obj 795 377 hsl 128 15 0 1 0 0 empty empty empty -2 -8 0 10 #fcfcfc #000000 #000000 0 1;
#X obj 566 381 bob~;
#X obj 566 83 +;
#X floatatom 612 78 5 36 127 1 Note - - 0;
#X obj 566 9 r LFO;
#X floatatom 566 112 5 0 0 0 - - - 0;
#X obj 567 562 throw~ out;
#X floatatom 837 400 5 0 0 0 - - - 0;
#X obj 567 467 *~;
#X msg 682 421 \$1 500 \, 0.7 1000 1000 \, 0 1000 3000;
#X msg 934 342 0.8;
#X obj 934 312 r bang;
#X obj 1364 248 r bang;
#X obj 1205 286 unpack 0 0;
#X obj 1205 353 s note1;
#X floatatom 1272 319 5 0 0 0 - - - 0;
#X obj 584 37 r note2;
#X obj 79 33 r note1;
#X obj 1272 353 s note2;
#X connect 0 0 2 0;
#X connect 1 0 3 1;
#X connect 2 0 3 0;
#X connect 3 0 4 0;
#X connect 4 0 5 0;
#X connect 5 0 6 0;
#X connect 5 0 12 0;
#X connect 6 0 7 0;
#X connect 7 0 21 0;
#X connect 8 0 21 1;
#X connect 9 0 21 2;
#X connect 10 0 45 0;
#X connect 12 0 13 0;
#X connect 13 0 7 0;
#X connect 14 0 15 0;
#X connect 14 0 16 0;
#X connect 15 0 8 0;
#X connect 16 0 9 0;
#X connect 17 0 18 0;
#X connect 18 0 46 0;
#X connect 19 0 45 1;
#X connect 20 0 44 0;
#X connect 20 0 18 1;
#X connect 21 0 10 0;
#X connect 22 0 25 0;
#X connect 23 0 22 1;
#X connect 23 0 17 0;
#X connect 24 0 22 0;
#X connect 25 0 0 0;
#X connect 26 0 27 0;
#X connect 27 0 28 0;
#X connect 28 0 56 0;
#X connect 30 0 26 0;
#X connect 31 0 100 0;
#X connect 33 0 34 0;
#X connect 33 0 40 0;
#X connect 34 0 35 0;
#X connect 36 0 37 0;
#X connect 37 0 38 0;
#X connect 38 0 39 0;
#X connect 40 0 48 0;
#X connect 40 0 48 1;
#X connect 41 0 40 1;
#X connect 42 0 43 0;
#X connect 42 0 55 0;
#X connect 45 0 32 0;
#X connect 46 0 19 0;
#X connect 47 0 27 0;
#X connect 48 0 11 0;
#X connect 48 1 11 1;
#X connect 49 0 53 0;
#X connect 50 0 49 0;
#X connect 51 0 50 0;
#X connect 52 0 50 0;
#X connect 53 0 54 0;
#X connect 53 0 59 0;
#X connect 53 0 61 0;
#X connect 54 0 99 0;
#X connect 55 0 52 0;
#X connect 55 0 64 0;
#X connect 56 0 29 0;
#X connect 57 0 56 1;
#X connect 58 0 56 1;
#X connect 59 0 60 0;
#X connect 60 0 58 0;
#X connect 60 1 57 0;
#X connect 62 0 41 0;
#X connect 63 0 20 0;
#X connect 65 0 63 0;
#X connect 66 0 62 0;
#X connect 67 0 69 0;
#X connect 68 0 70 1;
#X connect 69 0 70 0;
#X connect 70 0 71 0;
#X connect 71 0 72 0;
#X connect 72 0 73 0;
#X connect 72 0 78 0;
#X connect 73 0 74 0;
#X connect 74 0 87 0;
#X connect 75 0 87 1;
#X connect 76 0 87 2;
#X connect 77 0 94 0;
#X connect 78 0 79 0;
#X connect 79 0 74 0;
#X connect 80 0 81 0;
#X connect 80 0 82 0;
#X connect 81 0 75 0;
#X connect 82 0 76 0;
#X connect 83 0 84 0;
#X connect 84 0 95 0;
#X connect 85 0 94 1;
#X connect 86 0 93 0;
#X connect 86 0 84 1;
#X connect 87 0 77 0;
#X connect 88 0 91 0;
#X connect 89 0 88 1;
#X connect 89 0 83 0;
#X connect 90 0 88 0;
#X connect 91 0 67 0;
#X connect 94 0 92 0;
#X connect 95 0 85 0;
#X connect 96 0 86 0;
#X connect 97 0 96 0;
#X connect 98 0 30 0;
#X connect 99 0 31 0;
#X connect 99 1 101 0;
#X connect 101 0 104 0;
#X connect 102 0 89 0;
#X connect 103 0 23 0;
