#N canvas 479 276 450 300 12;
#X obj 39 65 oscparse;
#X obj 39 41 netreceive -u -b;
#X msg 39 6 listen 0;
#X msg 122 5 listen 8001;
#X obj 39 95 list trim;
#X obj 38 172 unpack 0 0 0, f 23;
#X floatatom 117 212 5 0 0 0 - - - 0;
#X floatatom 37 234 5 0 0 0 - - - 0;
#X floatatom 196 214 5 0 0 0 - - - 0;
#X obj 184 77 print;
#X obj 39 131 route newNote;
#X connect 0 0 4 0;
#X connect 0 0 9 0;
#X connect 1 0 0 0;
#X connect 2 0 1 0;
#X connect 3 0 1 0;
#X connect 4 0 10 0;
#X connect 5 0 7 0;
#X connect 5 1 6 0;
#X connect 5 2 8 0;
#X connect 10 0 5 0;
